<svg viewBox="0 0 32 32" enable-background="new 0 0 32 32" version="1.1" xml:space="preserve" xmlns="http://www.w3.org/2000/svg" xmlns:xlink="http://www.w3.org/1999/xlink" fill="#000000"><g id="SVGRepo_bgCarrier" stroke-width="0"></g><g id="SVGRepo_tracerCarrier" stroke-linecap="round" stroke-linejoin="round"></g><g id="SVGRepo_iconCarrier"> <g id="Layer_2"></g> <g id="Layer_3"></g> <g id="Layer_4"></g> <g id="Layer_5"></g> <g id="Layer_6"></g> <g id="Layer_7"></g> <g id="Layer_8"></g> <g id="Layer_9"></g> <g id="Layer_10"></g> <g id="Layer_11"></g> <g id="Layer_12"></g> <g id="Layer_13"></g> <g id="Layer_14"></g> <g id="Layer_15"></g> <g id="Layer_16"></g> <g id="Layer_17"></g> <g id="Layer_18"></g> <g id="Layer_19"> <g> <g> <path d="M30.9,20.8c-2.2,6.1-8,10.2-14.5,10.2C7.9,31,1,24.2,1,15.8C1,8.7,5.9,2.6,12.9,1c0.3-0.1,0.7,0,1,0.3 c0.2,0.3,0.3,0.7,0.2,1c-0.5,1.4-0.8,2.9-0.8,4.4c0,7.3,6,13.2,13.4,13.2c1,0,2.1-0.1,3.1-0.4c0.3-0.1,0.7,0,1,0.3 C31,20.1,31.1,20.5,30.9,20.8z" fill="#e0eaf0"></path> </g> </g> </g> <g id="Layer_20"></g> <g id="Layer_21"></g> <g id="Layer_22"></g> <g id="Layer_23"></g> <g id="Layer_24"></g> <g id="Layer_25"></g> <g id="Wearher"></g> </g></svg>